<svg xmlns="http://www.w3.org/2000/svg" height="400" width="900"><defs><marker id="a" orient="auto" overflow="visible"><path d="M-2.6-2.828L-5.428 0-2.6 2.828.228 0-2.6-2.828z" fill-rule="evenodd" fill="#fff" stroke="#000" stroke-width=".4pt"/></marker><marker orient="auto" id="b" overflow="visible"><path d="M-2.6-2.828L-5.428 0-2.6 2.828.228 0-2.6-2.828z" fill-rule="evenodd" fill="#fff" stroke="#000" stroke-width=".4pt"/></marker><marker id="g" orient="auto" overflow="visible"><path d="M-2.6-2.828L-5.428 0-2.6 2.828.228 0-2.6-2.828z" fill-rule="evenodd" fill="#fff" stroke="#000" stroke-width=".4pt"/></marker><marker id="f" orient="auto" overflow="visible"><path d="M-2.6-2.828L-5.428 0-2.6 2.828.228 0-2.6-2.828z" fill-rule="evenodd" stroke="#000" stroke-width=".4pt"/></marker><marker id="e" orient="auto" overflow="visible"><path d="M4 0l2-2-7 2 7 2-2-2z" fill-rule="evenodd" stroke="#000" stroke-width=".4pt"/></marker><marker orient="auto" id="d" overflow="visible"><path d="M-.184 0l-6.92 4v-8l6.92 4z" fill-rule="evenodd" fill="#fff" stroke="#000" stroke-width=".8pt"/></marker><marker id="c" orient="auto" overflow="visible"><path d="M-.184 0l-6.92 4v-8l6.92 4z" fill-rule="evenodd" fill="#fff" stroke="#000" stroke-width=".8pt"/></marker></defs><path style="isolation:auto;mix-blend-mode:normal" color="#000" overflow="visible" fill="none" stroke="#000" stroke-width="1.371" d="M41 78.84h173v39.8H41z"/><text style="line-height:125%;text-align:center" x="350.796" y="18.085" font-weight="400" font-size="25" font-family="sans-serif" letter-spacing="0" word-spacing="0" text-anchor="middle" transform="translate(-223 87)"><tspan x="350.796" y="18.085" font-size="17.5">Command</tspan></text><path style="isolation:auto;mix-blend-mode:normal" color="#000" overflow="visible" fill="none" stroke="#000" stroke-width="1.371" d="M41 167.84h173v39.8H41z"/><text style="line-height:125%;text-align:center" x="350.796" y="18.085" font-weight="400" font-size="25" font-family="sans-serif" letter-spacing="0" word-spacing="0" text-anchor="middle" transform="translate(-223 176)"><tspan x="350.796" y="18.085" font-size="17.5">Debuff</tspan></text><path style="isolation:auto;mix-blend-mode:normal" color="#000" overflow="visible" fill="none" stroke="#000" stroke-width="1.371" d="M363.5 121.84h173v39.8h-173z"/><text style="line-height:125%;text-align:center" x="350.796" y="18.085" font-weight="400" font-size="25" font-family="sans-serif" letter-spacing="0" word-spacing="0" text-anchor="middle" transform="translate(99.5 130)"><tspan x="350.796" y="18.085" font-size="17.5">Packet</tspan></text><path style="isolation:auto;mix-blend-mode:normal" color="#000" overflow="visible" fill="none" stroke="#000" stroke-width="1.371" d="M363.5 237.84h173v39.8h-173z"/><text style="line-height:125%;text-align:center" x="350.796" y="18.085" font-weight="400" font-size="25" font-family="sans-serif" letter-spacing="0" word-spacing="0" text-anchor="middle" transform="translate(99.5 246)"><tspan x="350.796" y="18.085" font-size="17.5">ExtendedPacket</tspan></text><path style="isolation:auto;mix-blend-mode:normal" color="#000" overflow="visible" fill="none" stroke="#000" stroke-width="1.371" d="M491 350.84h173v39.8H491z"/><text style="line-height:125%;text-align:center" x="350.796" y="18.085" font-weight="400" font-size="25" font-family="sans-serif" letter-spacing="0" word-spacing="0" text-anchor="middle" transform="translate(227 359)"><tspan x="350.796" y="18.085" font-size="17.5">Player</tspan></text><path style="isolation:auto;mix-blend-mode:normal" color="#000" overflow="visible" fill="#ffb380" fill-opacity=".471" fill-rule="evenodd" stroke="#000" stroke-width="1.371" d="M364 9h173v39.8H364z"/><text style="line-height:125%;text-align:center" x="450.296" y="676.085" font-weight="400" font-size="25" font-family="sans-serif" letter-spacing="0" word-spacing="0" text-anchor="middle" transform="translate(0 -641)"><tspan x="450.296" y="676.085" font-size="17.5">Serializable</tspan></text><path style="isolation:auto;mix-blend-mode:normal" color="#000" overflow="visible" fill="none" stroke="#000" stroke-width="1.371" d="M686 121.84h173v39.8H686z"/><text style="line-height:125%;text-align:center" x="350.796" y="18.085" font-weight="400" font-size="25" font-family="sans-serif" letter-spacing="0" word-spacing="0" text-anchor="middle" transform="translate(422 130)"><tspan x="350.796" y="18.085" font-size="17.5">Connection</tspan></text><path d="M354 992l77-73" fill="none" stroke="#000" stroke-width="2" marker-end="url(#a)" transform="translate(0 -641)"/><path d="M550 992l-80-73" fill="none" stroke="#000" stroke-width="2" marker-end="url(#b)" transform="translate(0 -641)"/><path d="M450 879v-76" fill="none" stroke="#000" stroke-width="2" marker-end="url(#c)" transform="translate(0 -641)"/><path d="M450 763v-73" fill="none" stroke="#000" stroke-width="2" marker-end="url(#d)" stroke-dasharray="8,8" transform="translate(0 -641)"/><path d="M537 783h149" fill="none" stroke="#000" stroke-width="2" stroke-dasharray="8,4" marker-start="url(#e)" transform="translate(0 -641)"/><path d="M214 751l150 20" fill="none" stroke="#000" stroke-width="2" marker-end="url(#f)" transform="translate(0 -641)"/><path d="M214 816l150-21" fill="none" stroke="#000" stroke-width="2" marker-end="url(#g)" transform="translate(0 -641)"/><text y="982.03" x="564.576" style="line-height:125%;text-align:center" font-weight="400" font-size="25" font-family="sans-serif" letter-spacing="0" word-spacing="0" text-anchor="middle" transform="translate(0 -641)"><tspan y="982.03" x="564.576" font-size="15">0..*</tspan></text><text y="712.927" x="127.5" style="line-height:125%;text-align:center" font-weight="400" font-size="15" font-family="sans-serif" letter-spacing="0" word-spacing="0" text-anchor="middle" transform="translate(0 -641)"><tspan y="712.927" x="127.5">&lt;&lt;enumeration&gt;&gt;</tspan></text><text y="801.927" x="127.5" style="line-height:125%;text-align:center" font-weight="400" font-size="15" font-family="sans-serif" letter-spacing="0" word-spacing="0" text-anchor="middle" transform="translate(0 -641)"><tspan y="801.927" x="127.5">&lt;&lt;enumeration&gt;&gt;</tspan></text><g><path style="isolation:auto;mix-blend-mode:normal" color="#000" overflow="visible" fill="none" stroke="#000" stroke-width="1.371" d="M239.9 350.84h173v39.8h-173z"/><text style="line-height:125%;text-align:center" x="350.796" y="18.085" font-weight="400" font-size="25" font-family="sans-serif" letter-spacing="0" word-spacing="0" text-anchor="middle" transform="translate(-24.1 359)"><tspan x="350.796" y="18.085" font-size="17.5">Zadanie</tspan></text></g></svg>