<svg xmlns="http://www.w3.org/2000/svg" height="1100" width="900"><defs><marker id="r" orient="auto" overflow="visible"><path d="M-2.6-2.828L-5.428 0-2.6 2.828.228 0-2.6-2.828z" fill-rule="evenodd" fill="#fff" stroke="#000" stroke-width=".4pt"/></marker><marker orient="auto" id="C" overflow="visible"><path d="M-2.6-2.828L-5.428 0-2.6 2.828.228 0-2.6-2.828z" fill-rule="evenodd" fill="#fff" stroke="#000" stroke-width=".4pt"/></marker><marker id="n" orient="auto" overflow="visible"><path d="M-2.6-2.828L-5.428 0-2.6 2.828.228 0-2.6-2.828z" fill-rule="evenodd" fill="#fff" stroke="#000" stroke-width=".4pt"/></marker><marker orient="auto" id="m" overflow="visible"><path d="M-2.6-2.828L-5.428 0-2.6 2.828.228 0-2.6-2.828z" fill-rule="evenodd" fill="#fff" stroke="#000" stroke-width=".4pt"/></marker><marker id="q" orient="auto" overflow="visible"><path d="M-2.6-2.828L-5.428 0-2.6 2.828.228 0-2.6-2.828z" fill-rule="evenodd" fill="#fff" stroke="#000" stroke-width=".4pt"/></marker><marker orient="auto" id="y" overflow="visible"><path d="M4 0l2-2-7 2 7 2-2-2z" fill-rule="evenodd" stroke="#000" stroke-width=".4pt"/></marker><marker id="z" orient="auto" overflow="visible"><path d="M4 0l2-2-7 2 7 2-2-2z" fill-rule="evenodd" stroke="#000" stroke-width=".4pt"/></marker><marker id="x" orient="auto" overflow="visible"><path d="M-2.6-2.828L-5.428 0-2.6 2.828.228 0-2.6-2.828z" fill-rule="evenodd" stroke="#000" stroke-width=".4pt"/></marker><marker orient="auto" id="k" overflow="visible"><path d="M-.184 0l-6.92 4v-8l6.92 4z" fill-rule="evenodd" fill="#fff" stroke="#000" stroke-width=".8pt"/></marker><marker id="B" orient="auto" overflow="visible"><path d="M-.184 0l-6.92 4v-8l6.92 4z" fill-rule="evenodd" fill="#fff" stroke="#000" stroke-width=".8pt"/></marker><marker orient="auto" id="l" overflow="visible"><path d="M-.184 0l-6.92 4v-8l6.92 4z" fill-rule="evenodd" fill="#fff" stroke="#000" stroke-width=".8pt"/></marker><marker id="f" orient="auto" overflow="visible"><path d="M-.184 0l-6.92 4v-8l6.92 4z" fill-rule="evenodd" fill="#fff" stroke="#000" stroke-width=".8pt"/></marker><marker orient="auto" id="e" overflow="visible"><path d="M-.184 0l-6.92 4v-8l6.92 4z" fill-rule="evenodd" fill="#fff" stroke="#000" stroke-width=".8pt"/></marker><marker orient="auto" id="g" overflow="visible"><path d="M-2.6-2.828L-5.428 0-2.6 2.828.228 0-2.6-2.828z" fill-rule="evenodd" stroke="#000" stroke-width=".4pt"/></marker><marker id="i" orient="auto" overflow="visible"><path d="M-2.6-2.828L-5.428 0-2.6 2.828.228 0-2.6-2.828z" fill-rule="evenodd" stroke="#000" stroke-width=".4pt"/></marker><marker id="A" orient="auto" overflow="visible"><path d="M2.6-2.828L-.228 0 2.6 2.828 5.428 0 2.6-2.828z" fill-rule="evenodd" stroke="#000" stroke-width=".4pt"/></marker><marker id="h" orient="auto" overflow="visible"><path d="M-.184 0l-6.92 4v-8l6.92 4z" fill-rule="evenodd" fill="#fff" stroke="#000" stroke-width=".8pt"/></marker><marker orient="auto" id="v" overflow="visible"><path d="M-.184 0l-6.92 4v-8l6.92 4z" fill-rule="evenodd" fill="#fff" stroke="#000" stroke-width=".8pt"/></marker><marker id="u" orient="auto" overflow="visible"><path d="M-.184 0l-6.92 4v-8l6.92 4z" fill-rule="evenodd" fill="#fff" stroke="#000" stroke-width=".8pt"/></marker><marker orient="auto" id="w" overflow="visible"><path d="M-.184 0l-6.92 4v-8l6.92 4z" fill-rule="evenodd" fill="#fff" stroke="#000" stroke-width=".8pt"/></marker><marker orient="auto" id="p" overflow="visible"><path d="M-.184 0l-6.92 4v-8l6.92 4z" fill-rule="evenodd" fill="#fff" stroke="#000" stroke-width=".8pt"/></marker><marker id="o" orient="auto" overflow="visible"><path d="M-.184 0l-6.92 4v-8l6.92 4z" fill-rule="evenodd" fill="#fff" stroke="#000" stroke-width=".8pt"/></marker><marker orient="auto" id="s" overflow="visible"><path d="M-.184 0l-6.92 4v-8l6.92 4z" fill-rule="evenodd" fill="#fff" stroke="#000" stroke-width=".8pt"/></marker><marker id="t" orient="auto" overflow="visible"><path d="M-.184 0l-6.92 4v-8l6.92 4z" fill-rule="evenodd" fill="#fff" stroke="#000" stroke-width=".8pt"/></marker><marker orient="auto" id="b" overflow="visible"><path d="M-.184 0l-6.92 4v-8l6.92 4z" fill-rule="evenodd" fill="#fff" stroke="#000" stroke-width=".8pt"/></marker><marker id="a" orient="auto" overflow="visible"><path d="M-.184 0l-6.92 4v-8l6.92 4z" fill-rule="evenodd" fill="#fff" stroke="#000" stroke-width=".8pt"/></marker><marker orient="auto" id="j" overflow="visible"><path d="M-2.6-2.828L-5.428 0-2.6 2.828.228 0-2.6-2.828z" fill-rule="evenodd" stroke="#000" stroke-width=".4pt"/></marker><marker orient="auto" id="c" overflow="visible"><path d="M-2.6-2.828L-5.428 0-2.6 2.828.228 0-2.6-2.828z" fill-rule="evenodd" stroke="#000" stroke-width=".4pt"/></marker><marker id="d" orient="auto" overflow="visible"><path d="M-2.6-2.828L-5.428 0-2.6 2.828.228 0-2.6-2.828z" fill-rule="evenodd" stroke="#000" stroke-width=".4pt"/></marker></defs><path style="isolation:auto;mix-blend-mode:normal" color="#000" overflow="visible" fill="none" stroke="#000" stroke-width="1.371" d="M612 476.84h173v39.8H612z"/><text style="line-height:125%;text-align:center" x="350.796" y="18.085" font-weight="400" font-size="25" font-family="sans-serif" letter-spacing="0" word-spacing="0" text-anchor="middle" transform="translate(348 485)"><tspan x="350.796" y="18.085" font-size="17.5">ServerConnection</tspan></text><path style="isolation:auto;mix-blend-mode:normal" color="#000" overflow="visible" fill="none" stroke="#000" stroke-width="1.371" d="M363.5 290.84h173v39.8h-173z"/><text style="line-height:125%;text-align:center" x="350.796" y="18.085" font-weight="400" font-size="25" font-family="sans-serif" letter-spacing="0" word-spacing="0" text-anchor="middle" transform="translate(99.5 299)"><tspan x="350.796" y="18.085" font-size="17.5">Connection</tspan></text><path style="isolation:auto;mix-blend-mode:normal" color="#000" overflow="visible" fill="none" stroke="#000" stroke-width="1.371" d="M125 476.84h173v39.8H125z"/><text style="line-height:125%;text-align:center" x="350.796" y="18.085" font-weight="400" font-size="25" font-family="sans-serif" letter-spacing="0" word-spacing="0" text-anchor="middle" transform="translate(-139 485)"><tspan x="350.796" y="18.085" font-size="17.5">ClientConnection</tspan></text><path style="isolation:auto;mix-blend-mode:normal" color="#000" overflow="visible" fill="none" stroke="#000" stroke-width="1.371" d="M363.5 14.54h173v39.8h-173z"/><text style="line-height:125%;text-align:center" x="350.796" y="18.085" font-weight="400" font-size="25" font-family="sans-serif" letter-spacing="0" word-spacing="0" text-anchor="middle" transform="translate(99.5 22.7)"><tspan x="350.796" y="18.085" font-size="17.5">App</tspan></text><path style="isolation:auto;mix-blend-mode:normal" color="#000" overflow="visible" fill="none" stroke="#000" stroke-width="1.371" d="M3 135.24h173v39.8H3z"/><text style="line-height:125%;text-align:center" x="350.796" y="18.085" font-weight="400" font-size="25" font-family="sans-serif" letter-spacing="0" word-spacing="0" text-anchor="middle" transform="translate(-261 143.4)"><tspan x="350.796" y="18.085" font-size="17.5">ClientApp</tspan></text><path style="isolation:auto;mix-blend-mode:normal" color="#000" overflow="visible" fill="none" stroke="#000" stroke-width="1.371" d="M724 135.24h173v39.8H724z"/><text style="line-height:125%;text-align:center" x="350.796" y="18.085" font-weight="400" font-size="25" font-family="sans-serif" letter-spacing="0" word-spacing="0" text-anchor="middle" transform="translate(460 143.4)"><tspan x="350.796" y="18.085" font-size="17.5">ServerApp</tspan></text><path style="isolation:auto;mix-blend-mode:normal" color="#000" overflow="visible" fill="none" stroke="#000" stroke-width="1.371" d="M3 684.84h173v39.8H3z"/><text y="18.085" x="350.796" style="line-height:125%;text-align:center" font-weight="400" font-size="25" font-family="sans-serif" letter-spacing="0" word-spacing="0" text-anchor="middle" transform="translate(-261 693)"><tspan y="18.085" x="350.796" font-size="17.5">ClientGUI</tspan></text><path style="isolation:auto;mix-blend-mode:normal" color="#000" overflow="visible" fill="none" stroke="#000" stroke-width="1.371" d="M724 684.84h173v39.8H724z"/><text y="18.085" x="350.796" style="line-height:125%;text-align:center" font-weight="400" font-size="25" font-family="sans-serif" letter-spacing="0" word-spacing="0" text-anchor="middle" transform="translate(460 693)"><tspan y="18.085" x="350.796" font-size="17.5">ServerGUI</tspan></text><path style="isolation:auto;mix-blend-mode:normal" color="#000" overflow="visible" fill="#ffb380" fill-opacity=".471" fill-rule="evenodd" stroke="#000" stroke-width="1.371" d="M364 719h173v39.8H364z"/><text style="line-height:125%;text-align:center" x="450.296" y="593.085" font-weight="400" font-size="25" font-family="sans-serif" letter-spacing="0" word-spacing="0" text-anchor="middle" transform="translate(0 152)"><tspan x="450.296" y="593.085" font-size="17.5">ActionListener</tspan></text><path style="isolation:auto;mix-blend-mode:normal" color="#000" overflow="visible" fill="none" stroke="#000" stroke-width="1.371" d="M176 232.84h173v39.8H176z"/><text y="18.085" x="350.796" style="line-height:125%;text-align:center" font-weight="400" font-size="25" font-family="sans-serif" letter-spacing="0" word-spacing="0" text-anchor="middle" transform="translate(-88 241)"><tspan y="18.085" x="350.796" font-size="17.5">Zadanie</tspan></text><path style="isolation:auto;mix-blend-mode:normal" color="#000" overflow="visible" fill="none" stroke="#000" stroke-width="1.371" d="M172.4 811.84h173v39.8h-173z"/><text style="line-height:125%;text-align:center" x="350.796" y="18.085" font-weight="400" font-size="25" font-family="sans-serif" letter-spacing="0" word-spacing="0" text-anchor="middle" transform="translate(-91.6 820)"><tspan x="350.796" y="18.085" font-size="17.5">Obsluga</tspan></text><path style="isolation:auto;mix-blend-mode:normal" color="#000" overflow="visible" fill="none" stroke="#000" stroke-width="1.371" d="M566 811.84h173v39.8H566z"/><text style="line-height:125%;text-align:center" x="350.796" y="18.085" font-weight="400" font-size="25" font-family="sans-serif" letter-spacing="0" word-spacing="0" text-anchor="middle" transform="translate(302 820)"><tspan x="350.796" y="18.085" font-size="17.5">Obsluga</tspan></text><path style="isolation:auto;mix-blend-mode:normal" color="#000" overflow="visible" fill="none" stroke="#000" stroke-width="1.371" d="M65 1049.84h173v39.8H65z"/><text y="18.085" x="350.796" style="line-height:125%;text-align:center" font-weight="400" font-size="25" font-family="sans-serif" letter-spacing="0" word-spacing="0" text-anchor="middle" transform="translate(-199 1058)"><tspan y="18.085" x="350.796" font-size="17.5">PanelPlayer</tspan></text><path style="isolation:auto;mix-blend-mode:normal" color="#000" overflow="visible" fill="#ffb380" fill-opacity=".471" fill-rule="evenodd" stroke="#000" stroke-width="1.371" d="M149 924h173v39.8H149z"/><text style="line-height:125%;text-align:center" x="235.796" y="798.085" font-weight="400" font-size="25" font-family="sans-serif" letter-spacing="0" word-spacing="0" text-anchor="middle" transform="translate(0 152)"><tspan x="235.796" y="798.085" font-size="17.5">JPanel</tspan></text><path style="isolation:auto;mix-blend-mode:normal" color="#000" overflow="visible" fill="none" stroke="#000" stroke-width="1.505" d="M345 885h209v39.7H345z"/><text style="line-height:125%;text-align:center" x="450.196" y="759.085" font-weight="400" font-size="25" font-family="sans-serif" letter-spacing="0" word-spacing="0" text-anchor="middle" transform="translate(0 152)"><tspan x="450.196" y="759.085" font-size="17.5">ObslugaUmiejetnosci</tspan></text><path style="isolation:auto;mix-blend-mode:normal" color="#000" overflow="visible" fill="#ffb380" fill-opacity=".471" fill-rule="evenodd" stroke="#000" stroke-width="1.371" d="M363 397h173v39.8H363z"/><text style="line-height:125%;text-align:center" x="449.796" y="271.085" font-weight="400" font-size="25" font-family="sans-serif" letter-spacing="0" word-spacing="0" text-anchor="middle" transform="translate(0 152)"><tspan x="449.796" y="271.085" font-size="17.5">Runnable</tspan></text><path style="isolation:auto;mix-blend-mode:normal" color="#000" overflow="visible" fill="#ffb380" fill-opacity=".471" fill-rule="evenodd" stroke="#000" stroke-width="1.371" d="M364 134.8h173v39.8H364z"/><text style="line-height:125%;text-align:center" x="450.296" y="9.085" font-weight="400" font-size="25" font-family="sans-serif" letter-spacing="0" word-spacing="0" text-anchor="middle" transform="translate(0 152)"><tspan x="450.296" y="9.085" font-size="17.5">Serializable</tspan></text><path style="isolation:auto;mix-blend-mode:normal" color="#000" overflow="visible" fill="#ffb380" fill-opacity=".471" fill-rule="evenodd" stroke="#000" stroke-width="1.371" d="M364 603h173v39.8H364z"/><text style="line-height:125%;text-align:center" x="450.796" y="477.085" font-weight="400" font-size="25" font-family="sans-serif" letter-spacing="0" word-spacing="0" text-anchor="middle" transform="translate(0 152)"><tspan x="450.796" y="477.085" font-size="17.5">JFrame</tspan></text><path style="isolation:auto;mix-blend-mode:normal" color="#000" overflow="visible" fill="none" stroke="#000" stroke-width="1.371" d="M698 1049.84h173v39.8H698z"/><text style="line-height:125%;text-align:center" x="350.796" y="18.085" font-weight="400" font-size="25" font-family="sans-serif" letter-spacing="0" word-spacing="0" text-anchor="middle" transform="translate(434 1058)"><tspan x="350.796" y="18.085" font-size="17.5">Status</tspan></text><path style="isolation:auto;mix-blend-mode:normal" color="#000" overflow="visible" fill="none" stroke="#000" stroke-width="1.371" d="M486 1049.84h173v39.8H486z"/><text style="line-height:125%;text-align:center" x="350.796" y="18.085" font-weight="400" font-size="25" font-family="sans-serif" letter-spacing="0" word-spacing="0" text-anchor="middle" transform="translate(222 1058)"><tspan x="350.796" y="18.085" font-size="17.5">Common</tspan></text><path style="isolation:auto;mix-blend-mode:normal" color="#000" overflow="visible" fill="none" stroke="#000" stroke-width="1.371" d="M627 565.84h173v39.8H627z"/><text style="line-height:125%;text-align:center" x="350.796" y="18.085" font-weight="400" font-size="25" font-family="sans-serif" letter-spacing="0" word-spacing="0" text-anchor="middle" transform="translate(363 574)"><tspan x="350.796" y="18.085" font-size="17.5">FilesService</tspan></text><path style="isolation:auto;mix-blend-mode:normal" color="#000" overflow="visible" fill="none" stroke="#000" stroke-width="1.371" d="M108 589.84h173v39.8H108z"/><text style="line-height:125%;text-align:center" x="350.796" y="18.085" font-weight="400" font-size="25" font-family="sans-serif" letter-spacing="0" word-spacing="0" text-anchor="middle" transform="translate(-156 598)"><tspan x="350.796" y="18.085" font-size="17.5">Variety</tspan></text><path style="isolation:auto;mix-blend-mode:normal" color="#000" overflow="visible" fill="none" stroke="#000" stroke-width="1.371" d="M363.5 518.84h173v39.8h-173z"/><text y="18.085" x="350.796" style="line-height:125%;text-align:center" font-weight="400" font-size="25" font-family="sans-serif" letter-spacing="0" word-spacing="0" text-anchor="middle" transform="translate(99.5 527)"><tspan y="18.085" x="350.796" font-size="17.5">Server</tspan></text><path style="isolation:auto;mix-blend-mode:normal" color="#000" overflow="visible" fill="none" stroke="#000" stroke-width="1.371" d="M552 232.64h173v39.8H552z"/><text style="line-height:125%;text-align:center" x="350.796" y="18.085" font-weight="400" font-size="25" font-family="sans-serif" letter-spacing="0" word-spacing="0" text-anchor="middle" transform="translate(288 240.8)"><tspan x="350.796" y="18.085" font-size="17.5">Player</tspan></text><path d="M148-16.8l238-80.9" fill="none" stroke="#000" stroke-width="2" marker-end="url(#a)" transform="translate(0 152)"/><path d="M752-16.8L514-97.7" fill="none" stroke="#000" stroke-width="2" marker-end="url(#b)" transform="translate(0 152)"/><path d="M87.6 533l1.8-510" fill="none" stroke="#000" stroke-width="2" marker-end="url(#c)" transform="translate(0 152)"/><path d="M812 533l-1-510" fill="none" stroke="#000" stroke-width="2" marker-end="url(#d)" transform="translate(0 152)"/><path d="M176 533l188-43" fill="none" stroke="#000" stroke-width="2" marker-end="url(#e)" transform="translate(0 152)"/><path d="M725 533l-188-43" fill="none" stroke="#000" stroke-width="2" marker-end="url(#f)" transform="translate(0 152)"/><path d="M148 898L92.9 573" fill="none" stroke="#000" stroke-width="2" marker-end="url(#g)" transform="translate(0 152)"/><path d="M166 898l56-86" fill="none" stroke="#000" stroke-width="2" marker-end="url(#h)" transform="translate(0 152)"/><path d="M232 660l-118-87" fill="none" stroke="#000" stroke-width="2" marker-end="url(#i)" transform="translate(0 152)"/><path d="M678 660l109-87" fill="none" stroke="#000" stroke-width="2" marker-end="url(#j)" transform="translate(0 152)"/><path d="M299 660l107-53" fill="none" stroke="#000" stroke-width="2" stroke-dasharray="8,4" marker-end="url(#k)" transform="translate(0 152)"/><path d="M610 660l-113-53" fill="none" stroke="#000" stroke-width="2" stroke-dasharray="8,4" marker-end="url(#l)" transform="translate(0 152)"/><path d="M204 325L94.7 23" fill="none" stroke="#000" stroke-width="2" marker-end="url(#m)" transform="translate(0 152)"/><path d="M705 325L806 23" fill="none" stroke="#000" stroke-width="2" marker-end="url(#n)" transform="translate(0 152)"/><path d="M672 325L474 179" fill="none" stroke="#000" stroke-width="2" marker-end="url(#o)" transform="translate(0 152)"/><path d="M237 325l190-146" fill="none" stroke="#000" stroke-width="2" marker-end="url(#p)" transform="translate(0 152)"/><path d="M227 80.8L123 23" fill="none" stroke="#000" stroke-width="2" marker-end="url(#q)" transform="translate(0 152)"/><path d="M644 120l52 205" fill="none" stroke="#000" stroke-width="2" marker-end="url(#r)" transform="translate(0 152)"/><path d="M300 80.8l109-58.2" fill="none" stroke="#000" stroke-width="2" stroke-dasharray="8,4" marker-end="url(#s)" transform="translate(0 152)"/><path d="M601 80.6l-110-58" fill="none" stroke="#000" stroke-width="2" stroke-dasharray="8,4" marker-end="url(#t)" transform="translate(0 152)"/><path d="M635 325l-128-40" fill="none" stroke="#000" stroke-width="2" stroke-dasharray="8,4" marker-end="url(#u)" transform="translate(0 152)"/><path d="M272 325l123-40" fill="none" stroke="#000" stroke-width="2" stroke-dasharray="8,4" marker-end="url(#v)" transform="translate(0 152)"/><path d="M450 367v-82" fill="none" stroke="#000" stroke-width="2" stroke-dasharray="8,4" marker-end="url(#w)" transform="translate(0 152)"/><path d="M493 407l276 126" fill="none" stroke="#000" stroke-width="2" marker-end="url(#x)" transform="translate(0 152)"/><path d="M172 478l-62 55" fill="none" stroke="#000" stroke-width="2" stroke-dasharray="8,4" marker-start="url(#y)" transform="translate(0 152)"/><path d="M730 454l66 79" fill="none" stroke="#000" stroke-width="2" stroke-dasharray="8,4" marker-start="url(#z)" transform="translate(0 152)"/><text y="799" x="509" style="line-height:125%;text-align:center" font-weight="400" font-size="25" font-family="sans-serif" letter-spacing="0" word-spacing="0" text-anchor="middle" transform="translate(0 152)"/><path d="M191 898l223-125" fill="none" stroke="#000" stroke-width="2" marker-start="url(#A)" transform="translate(0 152)"/><path d="M450 733V607" fill="none" stroke="#000" stroke-width="2" stroke-dasharray="8,4" marker-end="url(#B)" transform="translate(0 152)"/><text y="880.255" x="127.19" style="line-height:125%;text-align:center" font-weight="400" font-size="25" font-family="sans-serif" letter-spacing="0" word-spacing="0" text-anchor="middle" transform="translate(0 152)"><tspan y="880.255" x="127.19" font-size="15">*</tspan></text><text y="305.714" x="739.214" style="line-height:125%;text-align:center" font-weight="400" font-size="25" font-family="sans-serif" letter-spacing="0" word-spacing="0" text-anchor="middle" transform="translate(0 152)"><tspan y="305.714" x="739.214" font-size="15">0..*</tspan></text><path d="M674 80.6L775 23" fill="none" stroke="#000" stroke-width="2" marker-end="url(#C)" transform="translate(0 152)"/><text y="65.013" x="685.11" style="line-height:125%;text-align:center" font-weight="400" font-size="25" font-family="sans-serif" letter-spacing="0" word-spacing="0" text-anchor="middle" transform="translate(0 152)"><tspan y="65.013" x="685.11" font-size="15">0..*</tspan></text><text y="890.927" x="572.5" style="line-height:125%;text-align:center" font-weight="400" font-size="25" font-family="sans-serif" letter-spacing="0" word-spacing="0" text-anchor="middle" transform="translate(0 152)"><tspan y="890.927" x="572.5" font-size="15">&lt;&lt;static&gt;&gt;</tspan></text><text y="890.927" x="784.5" style="line-height:125%;text-align:center" font-weight="400" font-size="15" font-family="sans-serif" letter-spacing="0" word-spacing="0" text-anchor="middle" transform="translate(0 152)"><tspan y="890.927" x="784.5">&lt;&lt;static&gt;&gt;</tspan></text><text y="430.927" x="194.5" style="line-height:125%;text-align:center" font-weight="400" font-size="15" font-family="sans-serif" letter-spacing="0" word-spacing="0" text-anchor="middle" transform="translate(0 152)"><tspan y="430.927" x="194.5">&lt;&lt;enumeration&gt;&gt;</tspan></text><text y="406.927" x="713.5" style="line-height:125%;text-align:center" font-weight="400" font-size="15" font-family="sans-serif" letter-spacing="0" word-spacing="0" text-anchor="middle" transform="translate(0 152)"><tspan y="406.927" x="713.5">&lt;&lt;static&gt;&gt;</tspan></text><text y="559.927" x="450" style="line-height:125%;text-align:center" font-weight="400" font-size="15" font-family="sans-serif" letter-spacing="0" word-spacing="0" text-anchor="middle" transform="translate(0 152)"><tspan y="559.927" x="450">&lt;&lt;interface&gt;&gt;</tspan></text><text y="237.927" x="449.5" style="line-height:125%;text-align:center" font-weight="400" font-size="15" font-family="sans-serif" letter-spacing="0" word-spacing="0" text-anchor="middle" transform="translate(0 152)"><tspan y="237.927" x="449.5">&lt;&lt;interface&gt;&gt;</tspan></text><text y="-24.073" x="450" style="line-height:125%;text-align:center" font-weight="400" font-size="15" font-family="sans-serif" letter-spacing="0" word-spacing="0" text-anchor="middle" transform="translate(0 152)"><tspan y="-24.073" x="450">&lt;&lt;interface&gt;&gt;</tspan></text></svg>